<?xml version="1.0" encoding="UTF-8" standalone="no"?>
<!DOCTYPE svg PUBLIC "-//W3C//DTD SVG 1.1//EN" "http://www.w3.org/Graphics/SVG/1.1/DTD/svg11.dtd">
<svg version="1.1" xmlns="http://www.w3.org/2000/svg" xmlns:xlink="http://www.w3.org/1999/xlink" preserveAspectRatio="xMidYMid meet" viewBox="0 0 640 640" width="320" height="320"><defs><path d="M258.68 292.6C258.68 329.3 228.88 359.1 192.18 359.1C155.48 359.1 125.68 329.3 125.68 292.6C125.68 255.89 155.48 226.1 192.18 226.1C228.88 226.1 258.68 255.89 258.68 292.6Z" id="cQMub0t6j"></path><path d="M260.63 296.3C260.63 330.95 233.83 359.09 200.82 359.09C167.82 359.09 141.02 330.95 141.02 296.3C141.02 261.64 167.82 233.51 200.82 233.51C233.83 233.51 260.63 261.64 260.63 296.3Z" id="fiH9DgIMO"></path><path d="M260.63 292.59C260.63 329.29 229.96 359.09 192.18 359.09C154.4 359.09 123.73 329.29 123.73 292.59C123.73 255.89 154.4 226.1 192.18 226.1C229.96 226.1 260.63 255.89 260.63 292.59Z" id="b6xxKphErq"></path><path d="M248.34 215.87C230.07 219.98 219.84 229.07 217.63 243.15" id="a5xTrur7t"></path><path d="M226.41 256.79C222.31 242.01 214.12 240.3 201.83 251.67" id="ck5JItuJw"></path><path d="M232.27 203.64C232.27 211.16 227.22 217.28 221 217.28C214.78 217.28 209.73 211.16 209.73 203.64C209.73 196.11 214.78 190 221 190C227.22 190 232.27 196.11 232.27 203.64Z" id="iyPrAZcN"></path><path d="M216.88 194.55C216.88 202.08 213.29 208.19 208.86 208.19C204.43 208.19 200.83 202.08 200.83 194.55C200.83 187.03 204.43 180.91 208.86 180.91C213.29 180.91 216.88 187.03 216.88 194.55Z" id="c1uFlX7iX8"></path><path d="M197.45 179.21C201.54 200.81 212.37 214.16 229.92 219.28" id="j1iAaSyShp"></path><path d="M195.14 179.21C224.21 187.52 235.74 200.87 229.72 219.28" id="bhl15XbKy"></path><path d="M170.16 315.43C170.16 318.25 167.8 320.55 164.9 320.55C161.99 320.55 159.63 318.25 159.63 315.43C159.63 312.61 161.99 310.32 164.9 310.32C167.8 310.32 170.16 312.61 170.16 315.43Z" id="aQt6aQxft"></path><path d="M183.32 334.7C183.32 337.52 180.96 339.82 178.05 339.82C175.14 339.82 172.79 337.52 172.79 334.7C172.79 331.88 175.14 329.59 178.05 329.59C180.96 329.59 183.32 331.88 183.32 334.7Z" id="g1ktwTpoif"></path><path d="M198.35 316.45C198.35 319.27 195.99 321.56 193.08 321.56C190.18 321.56 187.82 319.27 187.82 316.45C187.82 313.62 190.18 311.33 193.08 311.33C195.99 311.33 198.35 313.62 198.35 316.45Z" id="a508HGED9y"></path><path d="M207.75 336.73C207.75 339.55 205.39 341.84 202.48 341.84C199.57 341.84 197.22 339.55 197.22 336.73C197.22 333.91 199.57 331.61 202.48 331.61C205.39 331.61 207.75 333.91 207.75 336.73Z" id="a1KVT6KJYa"></path></defs><g><g><g><use xlink:href="#cQMub0t6j" opacity="1" fill="#ffffff" fill-opacity="1"></use></g><g><use xlink:href="#fiH9DgIMO" opacity="1" fill="#f8e026" fill-opacity="1"></use></g><g><use xlink:href="#b6xxKphErq" opacity="1" fill="#ffffff" fill-opacity="0"></use><g><use xlink:href="#b6xxKphErq" opacity="1" fill-opacity="0" stroke="#441623" stroke-width="7" stroke-opacity="1"></use></g></g><g><g><use xlink:href="#a5xTrur7t" opacity="1" fill-opacity="0" stroke="#2a1d20" stroke-width="7" stroke-opacity="1"></use></g></g><g><g><use xlink:href="#ck5JItuJw" opacity="1" fill-opacity="0" stroke="#2a1d20" stroke-width="7" stroke-opacity="1"></use></g></g><g><use xlink:href="#iyPrAZcN" opacity="1" fill="#58d509" fill-opacity="1"></use></g><g><use xlink:href="#c1uFlX7iX8" opacity="1" fill="#58d509" fill-opacity="1"></use></g><g><g><use xlink:href="#j1iAaSyShp" opacity="1" fill-opacity="0" stroke="#2a1d20" stroke-width="7" stroke-opacity="1"></use></g></g><g><g><use xlink:href="#bhl15XbKy" opacity="1" fill-opacity="0" stroke="#2a1d20" stroke-width="7" stroke-opacity="1"></use></g></g><g><use xlink:href="#aQt6aQxft" opacity="1" fill="#441623" fill-opacity="1"></use></g><g><use xlink:href="#g1ktwTpoif" opacity="1" fill="#441623" fill-opacity="1"></use></g><g><use xlink:href="#a508HGED9y" opacity="1" fill="#441623" fill-opacity="1"></use></g><g><use xlink:href="#a1KVT6KJYa" opacity="1" fill="#441623" fill-opacity="1"></use></g></g></g></svg>