<svg width="147" height="189" xmlns="http://www.w3.org/2000/svg" xmlns:xlink="http://www.w3.org/1999/xlink" preserveAspectRatio="xMidYMid meet">
 <defs>
  <path id="cQMub0t6j" d="m258.68,292.6c0,36.7 -29.8,66.5 -66.5,66.5c-36.7,0 -66.5,-29.8 -66.5,-66.5c0,-36.71 29.8,-66.5 66.5,-66.5c36.7,0 66.5,29.79 66.5,66.5z"/>
  <path id="fiH9DgIMO" d="m260.63,296.3c0,34.65 -26.8,62.79 -59.81,62.79c-33,0 -59.8,-28.14 -59.8,-62.79c0,-34.66 26.8,-62.79 59.8,-62.79c33.01,0 59.81,28.13 59.81,62.79z"/>
  <path id="b6xxKphErq" d="m260.63,292.59c0,36.7 -30.67,66.5 -68.45,66.5c-37.78,0 -68.45,-29.8 -68.45,-66.5c0,-36.7 30.67,-66.49 68.45,-66.49c37.78,0 68.45,29.79 68.45,66.49z"/>
  <path id="a5xTrur7t" d="m248.34,215.87c-18.27,4.11 -28.5,13.2 -30.71,27.28"/>
  <path id="ck5JItuJw" d="m226.41,256.79c-4.1,-14.78 -12.29,-16.49 -24.58,-5.12"/>
  <path id="iyPrAZcN" d="m232.27,203.64c0,7.52 -5.05,13.64 -11.27,13.64c-6.22,0 -11.27,-6.12 -11.27,-13.64c0,-7.53 5.05,-13.64 11.27,-13.64c6.22,0 11.27,6.11 11.27,13.64z"/>
  <path id="c1uFlX7iX8" d="m216.88,194.55c0,7.53 -3.59,13.64 -8.02,13.64c-4.43,0 -8.03,-6.11 -8.03,-13.64c0,-7.52 3.6,-13.64 8.03,-13.64c4.43,0 8.02,6.12 8.02,13.64z"/>
  <path id="j1iAaSyShp" d="m197.45,179.21c4.09,21.6 14.92,34.95 32.47,40.07"/>
  <path id="bhl15XbKy" d="m195.14,179.21c29.07,8.31 40.6,21.66 34.58,40.07"/>
  <path id="aQt6aQxft" d="m170.16,315.43c0,2.82 -2.36,5.12 -5.26,5.12c-2.91,0 -5.27,-2.3 -5.27,-5.12c0,-2.82 2.36,-5.11 5.27,-5.11c2.9,0 5.26,2.29 5.26,5.11z"/>
  <path id="g1ktwTpoif" d="m183.32,334.7c0,2.82 -2.36,5.12 -5.27,5.12c-2.91,0 -5.26,-2.3 -5.26,-5.12c0,-2.82 2.35,-5.11 5.26,-5.11c2.91,0 5.27,2.29 5.27,5.11z"/>
  <path id="a508HGED9y" d="m198.35,316.45c0,2.82 -2.36,5.11 -5.27,5.11c-2.9,0 -5.26,-2.29 -5.26,-5.11c0,-2.83 2.36,-5.12 5.26,-5.12c2.91,0 5.27,2.29 5.27,5.12z"/>
  <path id="a1KVT6KJYa" d="m207.75,336.73c0,2.82 -2.36,5.11 -5.27,5.11c-2.91,0 -5.26,-2.29 -5.26,-5.11c0,-2.82 2.35,-5.12 5.26,-5.12c2.91,0 5.27,2.3 5.27,5.12z"/>
 </defs>
 <g>
  <title>background</title>
  <rect fill="none" id="canvas_background" height="191" width="149" y="-1" x="-1"/>
 </g>
 <g>
  <title>Layer 1</title>
  <g id="svg_1">
   <g id="svg_2">
    <g id="svg_3">
     <use x="-119" y="-174" id="svg_4" fill="#ffffff" xlink:href="#cQMub0t6j"/>
    </g>
    <g id="svg_5">
     <use x="-119" y="-174" id="svg_6" fill="#f8e026" xlink:href="#fiH9DgIMO"/>
    </g>
    <g id="svg_7">
     <use x="-119" y="-174" id="svg_8" fill-opacity="0" fill="#ffffff" xlink:href="#b6xxKphErq"/>
     <g id="svg_9">
      <use x="-119" y="-174" id="svg_10" stroke-width="7" stroke="#441623" fill-opacity="0" xlink:href="#b6xxKphErq"/>
     </g>
    </g>
    <g id="svg_11">
     <g id="svg_12">
      <use x="-119" y="-174" id="svg_13" stroke-width="7" stroke="#2a1d20" fill-opacity="0" xlink:href="#a5xTrur7t"/>
     </g>
    </g>
    <g id="svg_14">
     <g id="svg_15">
      <use x="-119" y="-174" id="svg_16" stroke-width="7" stroke="#2a1d20" fill-opacity="0" xlink:href="#ck5JItuJw"/>
     </g>
    </g>
    <g id="svg_17">
     <use x="-119" y="-174" id="svg_18" fill="#58d509" xlink:href="#iyPrAZcN"/>
    </g>
    <g id="svg_19">
     <use x="-119" y="-174" id="svg_20" fill="#58d509" xlink:href="#c1uFlX7iX8"/>
    </g>
    <g id="svg_21">
     <g id="svg_22">
      <use x="-119" y="-174" id="svg_23" stroke-width="7" stroke="#2a1d20" fill-opacity="0" xlink:href="#j1iAaSyShp"/>
     </g>
    </g>
    <g id="svg_24">
     <g id="svg_25">
      <use x="-119" y="-174" id="svg_26" stroke-width="7" stroke="#2a1d20" fill-opacity="0" xlink:href="#bhl15XbKy"/>
     </g>
    </g>
    <g id="svg_27">
     <use x="-119" y="-174" id="svg_28" fill="#441623" xlink:href="#aQt6aQxft"/>
    </g>
    <g id="svg_29">
     <use x="-119" y="-174" id="svg_30" fill="#441623" xlink:href="#g1ktwTpoif"/>
    </g>
    <g id="svg_31">
     <use x="-119" y="-174" id="svg_32" fill="#441623" xlink:href="#a508HGED9y"/>
    </g>
    <g id="svg_33">
     <use x="-119" y="-174" id="svg_34" fill="#441623" xlink:href="#a1KVT6KJYa"/>
    </g>
   </g>
  </g>
 </g>
</svg>